<svg width="30" height="30" viewBox="0 0 30 30" fill="none" xmlns="http://www.w3.org/2000/svg">
<path d="M15 1.5C7.5561 1.5 1.5 7.5561 1.5 15C1.5 22.4439 7.5561 28.5 15 28.5C22.4439 28.5 28.5 22.4436 28.5 15C28.5 7.5561 22.4439 1.5 15 1.5ZM15 26.7612C8.5149 26.7612 3.2388 21.4851 3.2388 15C3.2388 8.5149 8.5149 3.2388 15 3.2388C21.4851 3.2388 26.7612 8.5149 26.7612 15C26.7612 21.4851 21.4851 26.7612 15 26.7612Z" fill="black"/>
<path d="M15 3.23877C8.51487 3.23877 3.23877 8.51487 3.23877 15C3.23877 21.4851 8.51487 26.7612 15 26.7612C21.4851 26.7612 26.7612 21.4851 26.7612 15C26.7612 8.51487 21.4851 3.23877 15 3.23877ZM10.1481 9.90837L11.0901 8.00037L12.0318 9.90837L14.1375 10.2144L12.6132 11.6994L12.9732 13.7964L11.0901 12.8064L9.20667 13.7964L9.56667 11.6994L8.04267 10.2144L10.1481 9.90837ZM21.375 18.5106C21.3738 18.5235 21.3702 18.5355 21.3687 18.5484C21.3636 18.6081 21.3534 18.6663 21.3372 18.7224C20.8185 21.7563 18.1821 24.0687 15 24.0687C11.8176 24.0687 9.18207 21.7566 8.66337 18.7221C8.64687 18.6663 8.63607 18.6078 8.63127 18.5481C8.62947 18.5352 8.62617 18.5232 8.62437 18.5103H8.62767C8.62707 18.4995 8.62437 18.489 8.62437 18.4776C8.62437 18.0087 8.99397 17.628 9.44967 17.628H20.5503C21.0066 17.628 21.3756 18.0087 21.3753 18.4782C21.3753 18.4896 21.3723 18.5001 21.372 18.5109H21.375V18.5106ZM20.4891 11.6994L20.8488 13.7964L18.9663 12.8064L17.0826 13.7964L17.4429 11.6994L15.9189 10.2144L18.0246 9.90837L18.9666 8.00037L19.9077 9.90837L22.0134 10.2144L20.4891 11.6994Z" fill="#FFF200"/>
<path d="M20.5503 17.6277H9.44969C8.99399 17.6277 8.62439 18.0084 8.62439 18.4773C8.62439 18.4887 8.62709 18.4992 8.62769 18.51H8.62439C8.62619 18.5229 8.62949 18.5349 8.63129 18.5478C8.63609 18.6075 8.64689 18.6663 8.66339 18.7218C9.18209 21.7563 11.8176 24.0687 15 24.0687C18.1821 24.0687 20.8185 21.7566 21.3369 18.7227C21.3534 18.6663 21.3636 18.6084 21.3684 18.5487C21.3702 18.5358 21.3738 18.5238 21.3747 18.5109H21.3717C21.372 18.5001 21.375 18.4896 21.375 18.4782C21.3756 18.0081 21.0063 17.6277 20.5503 17.6277Z" fill="black"/>
<path d="M9.20672 13.7965L11.0901 12.8065L12.9732 13.7965L12.6132 11.6995L14.1375 10.2145L12.0318 9.90849L11.0901 8.00049L10.1481 9.90849L8.04272 10.2145L9.56673 11.6995L9.20672 13.7965Z" fill="black"/>
<path d="M18.9663 8.00049L18.0243 9.90849L15.9189 10.2145L17.4429 11.6995L17.0823 13.7965L18.9663 12.8065L20.8488 13.7965L20.4891 11.6995L22.0128 10.2145L19.9071 9.90849L18.9663 8.00049Z" fill="black"/>
</svg>
